<svg width="16" height="16" viewBox="0 0 16 16" fill="none" xmlns="http://www.w3.org/2000/svg">
<path d="M15.8224 14.8606L14.4125 13.4575C14.7095 13.0061 14.8917 12.4895 14.9433 11.9523C14.9949 11.4152 14.9144 10.8736 14.7087 10.3743C14.503 9.87504 14.1783 9.43314 13.7626 9.08677C13.347 8.7404 12.853 8.49997 12.3231 8.38624L12.301 8.38224V5.66495C12.3011 5.50739 12.2458 5.35477 12.1447 5.23355L12.1454 5.23489V5.23155C12.1327 5.21623 12.1192 5.20153 12.1051 5.18748L12.0997 5.18147L12.0816 5.16344L7.09122 0.194998C7.07733 0.181174 7.06278 0.168025 7.04762 0.155598L7.03018 0.143577C7.01929 0.134748 7.0081 0.126284 6.99664 0.118201L6.97988 0.10618L6.94366 0.0834751L6.92823 0.0754615C6.91302 0.0665575 6.89625 0.0583213 6.87792 0.0507529L6.85646 0.0420715L6.82225 0.030051L6.7981 0.0227052L6.7592 0.0126882L6.74042 0.00868141C6.72136 0.00476114 6.7021 0.00186316 6.68273 0H0.680816C0.500817 0.000699248 0.32836 0.0720622 0.200892 0.198594C0.0734239 0.325125 0.00123514 0.49661 0 0.675814L0 14.2836C0.000175042 14.4636 0.0718748 14.6361 0.199438 14.7636C0.327001 14.8911 0.500061 14.9632 0.680816 14.9641H11.6208C12.2749 14.9652 12.9145 14.773 13.4587 14.4118L13.4466 14.4192L14.8566 15.8229C14.9865 15.9406 15.1571 16.004 15.3328 15.9998C15.5084 15.9956 15.6758 15.9243 15.8 15.8005C15.9242 15.6768 15.9958 15.5101 15.9998 15.3352C16.0039 15.1603 15.9401 14.9906 15.8218 14.8612L15.8224 14.8619V14.8606ZM13.5922 11.6371C13.5922 11.8952 13.5412 12.1508 13.442 12.3894C13.3428 12.6279 13.1974 12.8446 13.0141 13.0271C12.8308 13.2097 12.6132 13.3545 12.3737 13.4533C12.1342 13.5522 11.8774 13.6031 11.6181 13.6031C11.3589 13.6031 11.1021 13.5523 10.8626 13.4536C10.623 13.3549 10.4053 13.2101 10.222 13.0276C10.0386 12.8451 9.89312 12.6284 9.79386 12.39C9.6946 12.1515 9.64349 11.8959 9.64344 11.6378C9.64327 11.1164 9.85111 10.6164 10.2212 10.2476C10.5914 9.87887 11.0935 9.6716 11.6171 9.67142C12.1408 9.67125 12.643 9.87817 13.0134 10.2467C13.3838 10.6152 13.592 11.1151 13.5922 11.6364V11.6371ZM7.28976 2.31727L9.96809 4.98447H7.28976V2.31727ZM1.367 1.35564H5.92344V5.66495C5.92344 6.04093 6.2293 6.34544 6.60694 6.34544H10.9353V8.38224C9.40734 8.70745 8.27779 10.0404 8.27779 11.6364C8.27779 12.377 8.5206 13.0608 8.93177 13.6131L8.92507 13.6044H1.36633L1.367 1.35564Z" fill="#4C442F"/>
</svg>
